<?xml version="1.0" encoding="UTF-8" standalone="no"?>
<!-- Created with Inkscape (http://www.inkscape.org/) -->

<svg
   xmlns:dc="http://purl.org/dc/elements/1.1/"
   xmlns:cc="http://creativecommons.org/ns#"
   xmlns:rdf="http://www.w3.org/1999/02/22-rdf-syntax-ns#"
   xmlns:svg="http://www.w3.org/2000/svg"
   xmlns="http://www.w3.org/2000/svg"
   xmlns:sodipodi="http://sodipodi.sourceforge.net/DTD/sodipodi-0.dtd"
   xmlns:inkscape="http://www.inkscape.org/namespaces/inkscape"
   width="1000"
   height="800"
   viewBox="0 0 1000 799.99996"
   id="svg2"
   version="1.1"
   inkscape:version="0.91 r13725"
   sodipodi:docname="gwe_ebay_cover.svg"
   inkscape:export-filename="/Users/diegotrap/repos/printed-parts-kits/kits/gregs_wades_extruder/media/ebay_red.png"
   inkscape:export-xdpi="90"
   inkscape:export-ydpi="90">
  <defs
     id="defs4">
    <clipPath
       clipPathUnits="userSpaceOnUse"
       id="presentation_clip_path">
      <rect
         id="rect5600"
         height="20331"
         width="29702"
         y="0"
         x="0" />
    </clipPath>
  </defs>
  <sodipodi:namedview
     id="base"
     pagecolor="#ffffff"
     bordercolor="#666666"
     borderopacity="1.0"
     inkscape:pageopacity="0.0"
     inkscape:pageshadow="2"
     inkscape:zoom="0.24748737"
     inkscape:cx="633.13791"
     inkscape:cy="-144.98559"
     inkscape:document-units="px"
     inkscape:current-layer="layer1"
     showgrid="false"
     fit-margin-top="0"
     fit-margin-left="0"
     fit-margin-right="0"
     fit-margin-bottom="0"
     units="px"
     inkscape:window-width="1280"
     inkscape:window-height="751"
     inkscape:window-x="0"
     inkscape:window-y="1"
     inkscape:window-maximized="1" />
  <metadata
     id="metadata7">
    <rdf:RDF>
      <cc:Work
         rdf:about="">
        <dc:format>image/svg+xml</dc:format>
        <dc:type
           rdf:resource="http://purl.org/dc/dcmitype/StillImage" />
        <dc:title></dc:title>
      </cc:Work>
    </rdf:RDF>
  </metadata>
  <g
     inkscape:label="Layer 1"
     inkscape:groupmode="layer"
     id="layer1"
     transform="translate(111.51787,-41.64794)">
    <text
       xml:space="preserve"
       style="font-style:normal;font-weight:normal;font-size:40px;line-height:125%;font-family:sans-serif;letter-spacing:0px;word-spacing:0px;fill:#000000;fill-opacity:1;stroke:none;stroke-width:1px;stroke-linecap:butt;stroke-linejoin:miter;stroke-opacity:1"
       x="17.624977"
       y="127.07648"
       id="text5344"
       sodipodi:linespacing="125%"><tspan
         sodipodi:role="line"
         id="tspan5346"
         x="17.624977"
         y="127.07648"
         style="font-style:normal;font-variant:normal;font-weight:bold;font-stretch:normal;font-size:70px;font-family:Raleway;-inkscape-font-specification:'Raleway Bold'">Extrusor Greg's Wade's</tspan></text>
    <text
       xml:space="preserve"
       style="font-style:normal;font-weight:normal;font-size:40px;line-height:125%;font-family:sans-serif;letter-spacing:0px;word-spacing:0px;fill:#333333;fill-opacity:1;stroke:none;stroke-width:1px;stroke-linecap:butt;stroke-linejoin:miter;stroke-opacity:1"
       x="583.33929"
       y="805.93365"
       id="text5352"
       sodipodi:linespacing="125%"><tspan
         sodipodi:role="line"
         id="tspan5354"
         x="583.33929"
         y="805.93365"
         style="font-style:normal;font-variant:normal;font-weight:900;font-stretch:normal;font-size:75px;font-family:Lato;-inkscape-font-specification:'Lato Heavy';fill:#333333">bitfab</tspan></text>
    <text
       sodipodi:linespacing="125%"
       id="text5356"
       y="805.93365"
       x="789.33929"
       style="font-style:normal;font-weight:normal;font-size:40px;line-height:125%;font-family:sans-serif;letter-spacing:0px;word-spacing:0px;fill:#000000;fill-opacity:1;stroke:none;stroke-width:1px;stroke-linecap:butt;stroke-linejoin:miter;stroke-opacity:1"
       xml:space="preserve"><tspan
         style="font-style:normal;font-variant:normal;font-weight:900;font-stretch:normal;font-size:50px;font-family:Lato;-inkscape-font-specification:'Lato Heavy';fill:#808080"
         y="805.93365"
         x="789.33929"
         id="tspan5358"
         sodipodi:role="line">.io</tspan></text>
    <text
       sodipodi:linespacing="125%"
       id="text5360"
       y="730.17224"
       x="583.33929"
       style="font-style:normal;font-weight:normal;font-size:40px;line-height:125%;font-family:sans-serif;letter-spacing:0px;word-spacing:0px;fill:#333333;fill-opacity:1;stroke:none;stroke-width:1px;stroke-linecap:butt;stroke-linejoin:miter;stroke-opacity:1"
       xml:space="preserve"><tspan
         style="font-style:normal;font-variant:normal;font-weight:normal;font-stretch:normal;font-size:40px;font-family:Lato;-inkscape-font-specification:Lato;fill:#333333"
         y="730.17224"
         x="583.33929"
         id="tspan5362"
         sodipodi:role="line">Made by</tspan></text>
    <g
       id="g5461"
       transform="matrix(0.2,0,0,0.2,110.47718,702.83756)">
      <rect
         id="rect5451"
         height="600"
         width="900"
         x="0"
         y="0"
         style="fill:#c60b1e" />
      <rect
         id="rect5453"
         y="150"
         height="300"
         width="900"
         x="0"
         style="fill:#ffc400" />
    </g>
    <g
       style="fill-rule:evenodd;stroke-width:28.22200012;stroke-linejoin:round"
       id="g5606"
       transform="matrix(0.03543307,0,0,0.03543307,-396.04277,530.51079)">
      <g
         id="id2"
         class="Master_Slide">
        <g
           id="bg-id2"
           class="Background" />
        <g
           id="bo-id2"
           class="BackgroundObjects" />
      </g>
    </g>
    <g
       style="fill-rule:evenodd;stroke-width:28.22200012;stroke-linejoin:round"
       class="Group"
       id="g5618"
       transform="matrix(0.03450224,0,0,0.03450224,-479.83289,629.99906)">
      <g
         id="g5978"
         transform="matrix(0.1855348,0,0,0.1855348,11128.411,1963.9944)">
        <g
           id="g5625"
           class="com.sun.star.drawing.RectangleShape">
          <g
             id="id4">
            <path
               id="path5628"
               d="m 14852,19539 -14059,0 0,-18746 28117,0 0,18746 -14058,0 z"
               inkscape:connector-curvature="0"
               style="fill:#003399;stroke:none" />
          </g>
        </g>
        <g
           id="g5630"
           class="com.sun.star.drawing.PolyPolygonShape">
          <g
             id="id5">
            <path
               id="path5633"
               d="m 14851,2876 233,716 755,-2 -612,443 235,720 -612,-445 -613,445 235,-720 -612,-444 757,0 234,-713 z"
               inkscape:connector-curvature="0"
               style="fill:#ffcc00;stroke:none" />
          </g>
        </g>
        <g
           id="g5635"
           class="com.sun.star.drawing.PolyPolygonShape">
          <g
             id="id6">
            <path
               id="path5638"
               d="m 17976,3714 233,718 757,2 -614,446 235,718 -612,-445 -613,445 235,-718 -612,-446 755,0 236,-720 z"
               inkscape:connector-curvature="0"
               style="fill:#ffcc00;stroke:none" />
          </g>
        </g>
        <g
           id="g5640"
           class="com.sun.star.drawing.PolyPolygonShape">
          <g
             id="id7">
            <path
               id="path5643"
               d="m 20265,6002 232,718 754,0 -614,446 234,718 -612,-444 -612,444 235,-718 -614,-446 755,0 242,-718 z"
               inkscape:connector-curvature="0"
               style="fill:#ffcc00;stroke:none" />
          </g>
        </g>
        <g
           id="g5645"
           class="com.sun.star.drawing.PolyPolygonShape">
          <g
             id="id8">
            <path
               id="path5648"
               d="m 21101,9126 232,716 754,0 -614,445 234,719 -612,-444 -612,444 235,-719 -614,-445 753,0 244,-716 z"
               inkscape:connector-curvature="0"
               style="fill:#ffcc00;stroke:none" />
          </g>
        </g>
        <g
           id="g5650"
           class="com.sun.star.drawing.PolyPolygonShape">
          <g
             id="id9">
            <path
               id="path5653"
               d="m 20264,12249 233,714 755,-1 -612,444 234,720 -612,-445 -612,445 235,-716 -614,-450 755,-2 238,-709 z"
               inkscape:connector-curvature="0"
               style="fill:#ffcc00;stroke:none" />
          </g>
        </g>
        <g
           id="g5655"
           class="com.sun.star.drawing.PolyPolygonShape">
          <g
             id="id10">
            <path
               id="path5658"
               d="m 17977,14535 233,714 757,-1 -614,444 234,720 -612,-445 -612,445 235,-718 -614,-446 755,-2 238,-711 z"
               inkscape:connector-curvature="0"
               style="fill:#ffcc00;stroke:none" />
          </g>
        </g>
        <g
           id="g5660"
           class="com.sun.star.drawing.PolyPolygonShape">
          <g
             id="id11">
            <path
               id="path5663"
               d="m 14851,15373 233,716 757,-2 -614,447 235,719 -612,-446 -613,445 235,-718 -612,-447 755,0 236,-714 z"
               inkscape:connector-curvature="0"
               style="fill:#ffcc00;stroke:none" />
          </g>
        </g>
        <g
           id="g5665"
           class="com.sun.star.drawing.PolyPolygonShape">
          <g
             id="id12">
            <path
               id="path5668"
               d="m 11727,14535 231,714 759,-1 -614,444 234,720 -612,-445 -614,445 235,-718 -612,-446 755,-2 238,-711 z"
               inkscape:connector-curvature="0"
               style="fill:#ffcc00;stroke:none" />
          </g>
        </g>
        <g
           id="g5670"
           class="com.sun.star.drawing.PolyPolygonShape">
          <g
             id="id13">
            <path
               id="path5673"
               d="m 9441,12249 233,714 758,-1 -613,444 234,720 -614,-445 -614,445 235,-718 -612,-446 755,-2 238,-711 z"
               inkscape:connector-curvature="0"
               style="fill:#ffcc00;stroke:none" />
          </g>
        </g>
        <g
           id="g5675"
           class="com.sun.star.drawing.PolyPolygonShape">
          <g
             id="id14">
            <path
               id="path5678"
               d="m 8606,9126 231,716 753,0 -614,445 235,719 -612,-444 -613,444 235,-719 -612,-445 755,0 242,-716 z"
               inkscape:connector-curvature="0"
               style="fill:#ffcc00;stroke:none" />
          </g>
        </g>
        <g
           id="g5680"
           class="com.sun.star.drawing.PolyPolygonShape">
          <g
             id="id15">
            <path
               id="path5683"
               d="m 9441,6002 233,718 757,0 -612,446 234,718 -614,-444 -614,444 235,-718 -612,-446 755,0 238,-718 z"
               inkscape:connector-curvature="0"
               style="fill:#ffcc00;stroke:none" />
          </g>
        </g>
        <g
           id="g5685"
           class="com.sun.star.drawing.PolyPolygonShape">
          <g
             id="id16">
            <path
               id="path5688"
               d="m 11729,3714 233,718 757,2 -612,446 234,716 -614,-444 -614,444 235,-718 -612,-446 755,0 238,-718 z"
               inkscape:connector-curvature="0"
               style="fill:#ffcc00;stroke:none" />
          </g>
        </g>
      </g>
    </g>
  </g>
</svg>
